<?xml version="1.0" encoding="utf-8"?>
<!-- Generator: Adobe Illustrator 25.4.1, SVG Export Plug-In . SVG Version: 6.00 Build 0)  -->
<svg version="1.1" id="Layer_1" xmlns="http://www.w3.org/2000/svg" xmlns:xlink="http://www.w3.org/1999/xlink" x="0px" y="0px"
	 viewBox="0 0 512 512" style="enable-background:new 0 0 512 512;" xml:space="preserve">
<path d="M440.3,97.8h-23V71.7c0-11.3-9.2-20.5-20.5-20.5H374c-11.3,0-20.5,9.2-20.5,20.5v26.2H158.4V71.7c0-11.3-9.2-20.5-20.5-20.5
	h-22.9c-11.3,0-20.5,9.2-20.5,20.5v26.2h-23c-11.3,0-20.5,9.2-20.5,20.5v255.1c0,11.3,9.2,20.5,20.5,20.5h23v56.7H56.3
	c-2.8,0-5.1,2.3-5.1,5.1c0,2.8,2.3,5.1,5.1,5.1h399.4c2.8,0,5.1-2.3,5.1-5.1c0-2.8-2.3-5.1-5.1-5.1h-38.3v-56.7h23
	c11.3,0,20.5-9.2,20.5-20.5V118.3C460.8,107,451.6,97.8,440.3,97.8z M363.8,71.7c0-5.6,4.6-10.2,10.2-10.2h22.9
	c5.6,0,10.2,4.6,10.2,10.2v26.2h-43.3V71.7z M104.9,71.7c0-5.6,4.6-10.2,10.2-10.2H138c5.6,0,10.2,4.6,10.2,10.2v26.2h-43.3V71.7z
	 M148.2,450.6h-43.3v-56.7h43.3V450.6z M353.5,450.6H158.4v-56.7h195.1V450.6z M407.1,450.6h-43.3v-56.7h43.3V450.6z M450.6,373.4
	c0,5.6-4.6,10.2-10.2,10.2H71.7c-5.6,0-10.2-4.6-10.2-10.2V118.3c0-5.6,4.6-10.2,10.2-10.2h368.6c5.6,0,10.2,4.6,10.2,10.2V373.4z"
	/>
</svg>
