<svg id="Layer_1" enable-background="new 0 0 100 100" height="512" viewBox="0 0 100 100" width="512" xmlns="http://www.w3.org/2000/svg"><path d="m88.9892578 28.9042969c-3.8583984 0-6.9980469-3.1381836-7-6.9960938 0-.5522461-.4482422-.9995117-1-.9995117h-5.6484375v-8.9086914h13.6552734c.5527344 0 1-.4477539 1-1s-.4472656-1-1-1h-78c-.5527344 0-1 .4477539-1 1s.4472656 1 1 1h13.6630859v8.9086914h-5.6591796c-.5527344 0-1 .4477539-1 1 0 3.8598633-3.140625 7-7 7-.5527344 0-1 .4477539-1 1v51.0913086c0 .5522461.4472656 1 1 1 3.859375 0 7 3.1401367 7 7 0 .5522461.4472656 1 1 1h62.0175781c.265625 0 .5195312-.1054688.7070312-.2929688.1875-.1879883.2929688-.4423828.2929688-.7075195-.0009766-1.8706055.7265625-3.6293945 2.0488281-4.9521484 1.3222656-1.3232422 3.0810547-2.0517578 4.9511719-2.0517578.265625 0 .5195312-.1054688.7070312-.2929688.1875-.1879883.2929688-.4423828.2929688-.7075195l-.0283203-51.0913086c0-.5522461-.4482422-.9995117-1-.9995117zm-62.3300781-16.9042969h46.6816406v8.9086914h-46.6816406zm55.9921875 70.6333008c-1.4619141 1.4628906-2.3583984 3.340332-2.5800781 5.3666992h-60.1269532c-.461914-4.1650391-3.7792968-7.4824219-7.9443359-7.9448242v-49.2016602c4.1650391-.4624023 7.4824219-3.7797852 7.9443359-7.9448242h60.1005859c.4638672 4.1630859 3.78125 7.4780273 7.9453125 7.9404297l.0263672 49.2011719c-2.0263671.2226562-3.9023437 1.1201172-5.3652343 2.5830078z"/><path d="m76.6367188 49.9389648-8.6552734-2.3769531-2.5888672-8.0219727c-.4667969-2.2387695-2.4521484-3.8564453-4.7441406-3.8564453h-25.0107423c-2.2929688 0-4.2792969 1.6196289-4.7451172 3.859375l-2.3818359 7.5351562c-.1054688.3369141-.3886719.5849609-.7373047.6474609l-4.2841797.7646484c-3.0859375.4941406-5.3251953 3.1201172-5.3251953 6.2446289v9.2128906c0 2.3999023 1.9521484 4.3520508 4.3525391 4.3520508h3.8035889c.4942017 3.8986816 3.8248901 6.925293 7.8555908 6.925293s7.3605347-3.0266113 7.8546143-6.925293h14.4128418c.4940796 3.8986816 3.8239136 6.925293 7.8546143 6.925293s7.3605347-3.0266113 7.8546143-6.925293h5.3309326c2.4003906 0 4.3525391-1.9521484 4.3525391-4.3520508v-7.6679688c-.0000002-3.0498044-2.2119143-5.722656-5.1992189-6.3408201zm-42.4609376 23.2861329c-3.2675781 0-5.9257812-2.6582031-5.9257812-5.925293s2.6582031-5.9248047 5.9257812-5.9248047c3.2666016 0 5.9248047 2.6577148 5.9248047 5.9248047s-2.6582031 5.925293-5.9248047 5.925293zm30.1220704 0c-3.2666016 0-5.9248047-2.6582031-5.9248047-5.925293s2.6582031-5.9248047 5.9248047-5.9248047 5.9248047 2.6577148 5.9248047 5.9248047-2.6582032 5.925293-5.9248047 5.925293zm15.5380859-9.2773438c0 1.296875-1.0556641 2.3520508-2.3525391 2.3520508h-5.3309937c-.4941405-3.8982544-3.8239135-6.9248047-7.8545531-6.9248047s-7.3604126 3.0265503-7.8545532 6.9248047h-14.4129639c-.4941407-3.8982544-3.8239136-6.9248047-7.8545533-6.9248047s-7.3613281 3.0265503-7.8555298 6.9248047h-3.8036499c-1.296875 0-2.3525391-1.0551758-2.3525391-2.3520508v-9.2128906c0-2.1362305 1.53125-3.9321289 3.6591797-4.2729492l4.3017579-.7675782c1.0839844-.1933594 1.9628906-.965332 2.2929688-2.0141602l2.3974609-7.5854492c.0117188-.0361328.0214844-.0727539.0283203-.1098633.2607422-1.3334961 1.4355469-2.3012695 2.7939453-2.3012695h25.0107422c1.3583984 0 2.5332031.9677734 2.7939453 2.3012695.0078125.0390625.0175781.0776367.0292969.1157227l2.7714844 8.5898438c.1035156.3208008.3623047.5678711.6875.6572266l9.2382812 2.534668c2.125.4414062 3.6669922 2.2905273 3.6669922 4.3974609z"/><path d="m59.2578125 43.0336914c-.1835938-.675293-.8066406-1.1464844-1.515625-1.1464844h-18.6533203c-.7089844 0-1.3320312.4711914-1.515625 1.1464844l-2.5693359 9.4648438c-.0820312.3007812-.0185547.6220703.1708984.8696289.1884766.2475586.4824219.3925781.7939453.3925781h24.8935547c.3115234 0 .6054688-.1450195.7939453-.3925781.1894531-.2475586.2529297-.5688477.1708984-.8696289zm-11.8417969 8.7270508h-10.1396484l2.1376953-7.8735352h8.0019531zm2 0v-7.8735352h8.0009766l2.1376953 7.8735352z"/></svg>