<svg id="Layer_1" enable-background="new 0 0 100 100" height="512" viewBox="0 0 100 100" width="512" xmlns="http://www.w3.org/2000/svg"><path d="m83 34.7714844c.3017578 0 .5874023-.1362305.7773438-.3706055l6-7.4125977c.296875-.3671875.296875-.8916016 0-1.2587891l-6-7.4121094c-.1899415-.2343749-.475586-.3706054-.7773438-.3706054h-26.7685547v-3.9467773c0-2.2055664-1.7944336-4-4-4h-4.4628906c-2.2055664 0-4 1.7944336-4 4v15.515625h-26.7685547c-.3017578 0-.5874023.1362305-.7773438.3706055l-6 7.4125977c-.296875.3671875-.296875.8916016 0 1.2587891l6 7.4125977c.1899415.2343748.475586.3706053.7773438.3706053h26.7685547v41.6591797h-32.7685547c-.5522461 0-1 .4477539-1 1s.4477539 1 1 1h78c.5522461 0 1-.4477539 1-1s-.4477539-1-1-1h-32.7685547v-30.090332h26.7685547c.3017578 0 .5874023-.1362305.7773438-.3706055l6-7.4121094c.296875-.3671875.296875-.8916016 0-1.2587891l-6-7.4125977c-.1899415-.2343749-.475586-.3706054-.7773438-.3706054h-26.7685547v-6.3134766h26.7685547zm-26.7685547-14.8247071h26.2915039l5.1904297 6.4121094-5.1904297 6.4125977h-26.2915039zm-12.4628906 24.394043h-26.2915039l-5.1904297-6.4125977 5.1904297-6.4125977h26.2915039zm10.4628906 43.6591797h-8.4628906v-74c0-1.1030273.8969727-2 2-2h4.4628906c1.1030273 0 2 .8969727 2 2zm28.2915039-44.9150391 5.1904297 6.4125977-5.1904297 6.4121094h-26.2915039v-12.824707h26.2915039z"/></svg>