<svg id="Layer_1" enable-background="new 0 0 100 100" height="512" viewBox="0 0 100 100" width="512" xmlns="http://www.w3.org/2000/svg"><path d="m89 74.6240234h-8.0119629l-15.2966309-59.6577148c-.7509765-2.9243164-3.3828124-4.9663086-6.4013671-4.9663086h-18.5800782c-3.0185547 0-5.6503906 2.0419922-6.4013672 4.9663086l-15.2962646 59.6577148h-8.0123291c-.5527344 0-1 .4477539-1 1v13.3759766c0 .5522461.4472656 1 1 1h78c.5527344 0 1-.4477539 1-1v-13.3759766c0-.5522461-.4472656-1-1-1zm-52.7539062-59.1606445c.5234374-2.0390625 2.359375-3.4633789 4.4638671-3.4633789h18.5800781c2.1044922 0 3.9404297 1.4243164 4.4638672 3.4633789l2.494812 9.7299805h-32.4973754zm-3.0075684 11.7299805h33.5230103l3.6942749 14.4077148h-40.911438zm-4.2069702 16.4077148h41.9370728l3.6942139 14.4077148h-49.3254396zm-4.2069092 16.4077149h50.3510132l3.7474365 14.6152344h-57.8458252zm63.175354 27.9912109h-76v-11.3759766h76z"/></svg>